<svg width="354.2187133789062px" height="107.6px" xmlns="http://www.w3.org/2000/svg" viewBox="72.89064331054689 21.200000000000003 354.2187133789062 107.6" style="background: rgb(253, 253, 253);" preserveAspectRatio="xMidYMid"><defs><filter id="editing-hole" x="-100%" y="-100%" width="300%" height="300%"><feFlood flood-color="#000000" result="black"></feFlood><feMorphology operator="dilate" radius="2" in="SourceGraphic" result="erode"></feMorphology><feGaussianBlur in="erode" stdDeviation="4" result="blur"></feGaussianBlur><feOffset in="blur" dx="2" dy="2" result="offset"></feOffset><feComposite operator="atop" in="offset" in2="black" result="merge"></feComposite><feComposite operator="in" in="merge" in2="SourceGraphic" result="inner-shadow"></feComposite></filter></defs><g filter="url(#editing-hole)"><g transform="translate(127.11998462677002, 95.96000099182129)"><path d="M23.17-21.38L23.17-21.38Q31.87-19.65 31.87-11.46L31.87-11.46L31.87-11.46Q31.87-5.63 27.65-2.69L27.65-2.69L27.65-2.69Q23.42 0.26 15.04 0.26L15.04 0.26L15.04 0.26Q9.41 0.26 6.02 0L6.02 0L5.95 0L6.27-12.35L5.95-41.02L17.34-41.09L17.34-41.09Q23.10-41.09 26.21-38.53L26.21-38.53L26.21-38.53Q29.31-35.97 29.31-31.10L29.31-31.10L29.31-31.10Q29.31-27.65 27.71-25.15L27.71-25.15L27.71-25.15Q26.11-22.66 23.17-21.38L23.17-21.38ZM24.06-30.53L24.06-30.53Q24.06-33.86 22.24-35.36L22.24-35.36L22.24-35.36Q20.42-36.86 16.32-36.86L16.32-36.86L11.14-36.86L11.01-23.10L18.05-22.91L18.05-22.91Q24.06-24.32 24.06-30.53L24.06-30.53ZM15.81-4.03L15.81-4.03Q21.06-4.03 23.87-6.02L23.87-6.02L23.87-6.02Q26.69-8 26.69-11.71L26.69-11.71L26.69-11.71Q26.69-17.98 18.82-18.88L18.82-18.88L10.94-18.82L10.88-12.80L11.07-4.22L11.07-4.22Q13.57-4.03 15.81-4.03L15.81-4.03ZM56.26-41.02L69.95 0L64.70 0L63.74-4.10L61.44-11.14L52.22-11.33L43.90-11.14L41.41-4.35L40.38 0L35.26 0L50.30-41.02L56.26-41.02ZM52.67-15.36L60.03-15.49L53.38-35.71L52.93-35.71L45.50-15.49L52.67-15.36ZM88.45-41.34L88.45-41.34Q92.86-41.34 97.60-39.42L97.60-39.42L96.77-34.50L95.87-34.24L95.87-34.24Q94.02-35.65 91.94-36.42L91.94-36.42L91.94-36.42Q89.86-37.18 87.81-37.18L87.81-37.18L87.81-37.18Q85.44-37.18 83.68-36.22L83.68-36.22L83.68-36.22Q81.92-35.26 80.99-33.73L80.99-33.73L80.99-33.73Q80.06-32.19 80.06-30.53L80.06-30.53L80.06-30.53Q80.06-28.80 81.12-27.49L81.12-27.49L81.12-27.49Q82.18-26.18 83.78-25.22L83.78-25.22L83.78-25.22Q85.38-24.26 88.13-22.91L88.13-22.91L88.13-22.91Q91.58-21.31 93.70-19.94L93.70-19.94L93.70-19.94Q95.81-18.56 97.31-16.45L97.31-16.45L97.31-16.45Q98.82-14.34 98.82-11.33L98.82-11.33L98.82-11.33Q98.82-8.13 97.09-5.44L97.09-5.44L97.09-5.44Q95.36-2.75 92.22-1.15L92.22-1.15L92.22-1.15Q89.09 0.45 85.06 0.45L85.06 0.45L85.06 0.45Q82.37 0.45 79.46-0.29L79.46-0.29L79.46-0.29Q76.54-1.02 74.05-2.43L74.05-2.43L74.69-7.68L75.39-8L75.39-8Q77.63-5.82 80.35-4.77L80.35-4.77L80.35-4.77Q83.07-3.71 85.57-3.71L85.57-3.71L85.57-3.71Q88-3.71 89.89-4.67L89.89-4.67L89.89-4.67Q91.78-5.63 92.77-7.23L92.77-7.23L92.77-7.23Q93.76-8.83 93.76-10.62L93.76-10.62L93.76-10.62Q93.76-13.31 91.71-14.94L91.71-14.94L91.71-14.94Q89.66-16.58 85.50-18.50L85.50-18.50L85.50-18.50Q82.11-20.16 80.06-21.47L80.06-21.47L80.06-21.47Q78.02-22.78 76.54-24.86L76.54-24.86L76.54-24.86Q75.07-26.94 75.07-29.95L75.07-29.95L75.07-29.95Q75.07-33.09 76.77-35.71L76.77-35.71L76.77-35.71Q78.46-38.34 81.50-39.84L81.50-39.84L81.50-39.84Q84.54-41.34 88.45-41.34L88.45-41.34ZM139.33-41.02L139.07-12.80L139.20 0L134.14 0L134.40-12.35L134.34-18.50L122.94-18.56L112.51-18.50L112.45-12.80L112.64 0L107.58 0L107.78-12.35L107.58-41.02L112.70-41.02L112.51-22.85L123.39-22.78L134.34-22.85L134.14-41.02L139.33-41.02ZM156.54-41.02L156.22-12.80L156.48 0L151.30 0L151.62-12.35L151.30-41.02L156.54-41.02ZM182.21-41.41L182.21-41.41Q190.66-41.41 195.17-36.22L195.17-36.22L195.17-36.22Q199.68-31.04 199.68-21.31L199.68-21.31L199.68-21.31Q199.68-10.82 194.88-5.15L194.88-5.15L194.88-5.15Q190.08 0.51 181.18 0.51L181.18 0.51L181.18 0.51Q172.86 0.51 168.35-4.86L168.35-4.86L168.35-4.86Q163.84-10.24 163.84-20.16L163.84-20.16L163.84-20.16Q163.84-30.40 168.61-35.90L168.61-35.90L168.61-35.90Q173.38-41.41 182.21-41.41L182.21-41.41ZM181.89-37.25L181.89-37.25Q169.09-37.25 169.09-20.74L169.09-20.74L169.09-20.74Q169.09-11.97 172.19-7.74L172.19-7.74L172.19-7.74Q175.30-3.52 181.57-3.52L181.57-3.52L181.57-3.52Q194.37-3.52 194.37-20.35L194.37-20.35L194.37-20.35Q194.37-28.93 191.26-33.09L191.26-33.09L191.26-33.09Q188.16-37.25 181.89-37.25L181.89-37.25ZM239.81-41.15L239.49-12.03L239.62 0L234.24 0L212.99-32.83L212.67-32.83L212.61-13.50L212.67 0L208.06 0L208.26-12.16L208.13-41.02L213.44-41.02L234.62-8.19L235.07-8.19L235.01-40.77L239.81-41.15Z" fill="#000000"></path></g></g><style>text {
  font-size: 64px;
  font-family: Arial Black;
  dominant-baseline: central;
  text-anchor: middle;
}</style></svg>